<svg width="52" height="52" viewBox="0 0 52 52" fill="none" xmlns="http://www.w3.org/2000/svg">
<path d="M7.152 39.48C7.28 39.76 7.38 40.268 7.452 41.004C7.524 41.74 7.56 42.344 7.56 42.816C7.456 42.856 7.292 42.888 7.068 42.912C6.852 42.936 6.656 42.948 6.48 42.948C6.432 42.308 6.352 41.816 6.24 41.472C6.136 41.128 5.992 40.892 5.808 40.764C5.624 40.636 5.384 40.572 5.088 40.572H4.884V46.584C4.884 46.808 4.988 46.972 5.196 47.076C5.404 47.18 5.724 47.232 6.156 47.232C6.156 47.376 6.132 47.516 6.084 47.652C6.036 47.788 5.968 47.904 5.88 48H1.8C1.72 47.904 1.656 47.788 1.608 47.652C1.56 47.516 1.536 47.376 1.536 47.232C2.44 47.232 2.892 47.016 2.892 46.584V40.572H2.628C1.788 40.572 1.304 41.364 1.176 42.948C0.616 42.924 0.256 42.88 0.096 42.816C0.096 42.344 0.132 41.74 0.204 41.004C0.276 40.268 0.376 39.76 0.504 39.48C0.872 39.48 1.2 39.528 1.488 39.624H6.168C6.472 39.528 6.8 39.48 7.152 39.48ZM7.55306 46.308C7.55306 45.772 7.72906 45.348 8.08106 45.036C8.43306 44.724 8.95306 44.568 9.64106 44.568C9.88106 44.568 10.1251 44.592 10.3731 44.64C10.6291 44.688 10.8371 44.752 10.9971 44.832V43.236C10.9971 42.916 10.9171 42.688 10.7571 42.552C10.5971 42.408 10.3811 42.336 10.1091 42.336C9.84506 42.336 9.62906 42.4 9.46106 42.528C9.61306 42.576 9.72506 42.66 9.79706 42.78C9.87706 42.892 9.91706 43.02 9.91706 43.164C9.91706 43.42 9.82506 43.628 9.64106 43.788C9.45706 43.948 9.22506 44.028 8.94506 44.028C8.64106 44.028 8.39706 43.94 8.21306 43.764C8.02906 43.588 7.93706 43.36 7.93706 43.08C7.93706 42.8 8.03306 42.536 8.22506 42.288C8.41706 42.04 8.70906 41.84 9.10106 41.688C9.50106 41.536 9.99306 41.46 10.5771 41.46C11.3691 41.46 11.9691 41.624 12.3771 41.952C12.7851 42.272 12.9891 42.744 12.9891 43.368V46.548C12.9891 46.932 13.1731 47.164 13.5411 47.244V47.628C13.4371 47.772 13.2651 47.884 13.0251 47.964C12.7851 48.044 12.5411 48.084 12.2931 48.084C11.7491 48.084 11.3651 47.896 11.1411 47.52C10.9571 47.68 10.7331 47.816 10.4691 47.928C10.2051 48.032 9.90506 48.084 9.56906 48.084C8.96906 48.084 8.48106 47.92 8.10506 47.592C7.73706 47.256 7.55306 46.828 7.55306 46.308ZM10.9971 45.756C10.9091 45.7 10.8011 45.652 10.6731 45.612C10.5531 45.572 10.4371 45.552 10.3251 45.552C10.1011 45.552 9.91706 45.624 9.77306 45.768C9.62906 45.904 9.55706 46.104 9.55706 46.368C9.55706 46.584 9.62906 46.764 9.77306 46.908C9.91706 47.044 10.1091 47.112 10.3491 47.112C10.4691 47.112 10.5851 47.096 10.6971 47.064C10.8171 47.024 10.9171 46.976 10.9971 46.92V45.756ZM14.7424 40.32C14.7424 40.12 14.6824 39.972 14.5624 39.876C14.4504 39.772 14.2384 39.72 13.9264 39.72V39.24C14.2144 39.08 14.5784 38.944 15.0184 38.832C15.4584 38.72 15.8144 38.664 16.0864 38.664C16.2784 38.664 16.4144 38.704 16.4944 38.784C16.5744 38.864 16.6144 39.004 16.6144 39.204V46.692C16.6144 46.94 16.6624 47.112 16.7584 47.208C16.8624 47.304 17.0344 47.352 17.2744 47.352C17.2744 47.576 17.1784 47.792 16.9864 48H14.3584C14.1744 47.8 14.0824 47.584 14.0824 47.352C14.3144 47.352 14.4824 47.304 14.5864 47.208C14.6904 47.104 14.7424 46.932 14.7424 46.692V40.32ZM24.5624 47.592C24.5384 47.76 24.4264 47.892 24.2264 47.988C24.0344 48.076 23.7864 48.12 23.4824 48.12C23.0744 48.12 22.7344 48.032 22.4624 47.856C22.1984 47.68 21.9904 47.468 21.8384 47.22C21.6864 46.972 21.5224 46.648 21.3464 46.248C21.1704 45.856 21.0144 45.556 20.8784 45.348C20.7504 45.14 20.5824 44.996 20.3744 44.916V46.752C20.3744 46.984 20.4224 47.152 20.5184 47.256C20.6224 47.352 20.7984 47.4 21.0464 47.4C21.0464 47.648 20.9504 47.86 20.7584 48.036H18.1184C17.9264 47.868 17.8304 47.656 17.8304 47.4C18.0704 47.4 18.2384 47.352 18.3344 47.256C18.4384 47.152 18.4904 46.984 18.4904 46.752V40.248C18.4904 40.048 18.4344 39.9 18.3224 39.804C18.2104 39.7 17.9984 39.648 17.6864 39.648V39.168C17.9744 39.016 18.3384 38.88 18.7784 38.76C19.2264 38.64 19.5784 38.58 19.8344 38.58C20.0264 38.58 20.1624 38.624 20.2424 38.712C20.3304 38.8 20.3744 38.944 20.3744 39.144V44.484L21.6944 43.116C21.8464 42.964 21.9224 42.844 21.9224 42.756C21.9224 42.644 21.8344 42.54 21.6584 42.444C21.4904 42.348 21.3264 42.3 21.1664 42.3C21.1664 42.164 21.1904 42.032 21.2384 41.904C21.2864 41.776 21.3544 41.664 21.4424 41.568H24.1424C24.2944 41.72 24.3704 41.964 24.3704 42.3C24.1784 42.3 24.0264 42.328 23.9144 42.384C23.8104 42.44 23.7024 42.52 23.5904 42.624L21.7664 44.424C22.0624 44.472 22.3104 44.572 22.5104 44.724C22.7184 44.868 22.9064 45.092 23.0744 45.396C23.2744 45.756 23.3784 45.944 23.3864 45.96C23.6504 46.448 23.8464 46.776 23.9744 46.944C24.1104 47.104 24.3024 47.224 24.5504 47.304L24.5624 47.592ZM25.4316 42.9C25.3436 42.868 25.2636 42.8 25.1916 42.696C25.1196 42.584 25.0836 42.468 25.0836 42.348C25.4036 42.148 25.6596 41.892 25.8516 41.58C26.0516 41.268 26.1516 40.956 26.1516 40.644C26.1516 40.58 26.1476 40.528 26.1396 40.488C26.1156 40.496 26.0596 40.5 25.9716 40.5C25.6676 40.5 25.4276 40.396 25.2516 40.188C25.0836 39.98 24.9996 39.728 24.9996 39.432C24.9996 39.112 25.0956 38.852 25.2876 38.652C25.4796 38.444 25.7276 38.34 26.0316 38.34C26.3996 38.34 26.6956 38.48 26.9196 38.76C27.1436 39.032 27.2556 39.44 27.2556 39.984C27.2556 40.464 27.1676 40.908 26.9916 41.316C26.8236 41.724 26.5996 42.068 26.3196 42.348C26.0396 42.62 25.7436 42.804 25.4316 42.9ZM34.9595 47.676C34.8395 47.796 34.6235 47.892 34.3115 47.964C34.0075 48.036 33.7155 48.072 33.4355 48.072C33.0915 48.072 32.8355 48.008 32.6675 47.88C32.5075 47.752 32.4275 47.548 32.4275 47.268V43.524C32.4275 43.212 32.3595 42.988 32.2235 42.852C32.0875 42.716 31.9075 42.648 31.6835 42.648C31.3555 42.648 31.0795 42.78 30.8555 43.044V46.704C30.8555 46.936 30.9035 47.104 30.9995 47.208C31.1035 47.312 31.2755 47.364 31.5155 47.364C31.5155 47.604 31.4235 47.816 31.2395 48H28.5155C28.3235 47.808 28.2275 47.596 28.2275 47.364C28.4675 47.364 28.6395 47.312 28.7435 47.208C28.8475 47.104 28.8995 46.936 28.8995 46.704V43.2C28.8995 42.984 28.8395 42.832 28.7195 42.744C28.5995 42.648 28.3915 42.6 28.0955 42.6V42.06C28.3515 41.916 28.7115 41.784 29.1755 41.664C29.6475 41.544 30.0035 41.484 30.2435 41.484C30.4275 41.484 30.5675 41.544 30.6635 41.664C30.7675 41.776 30.8275 41.992 30.8435 42.312C31.0515 42.056 31.3115 41.856 31.6235 41.712C31.9355 41.56 32.2875 41.484 32.6795 41.484C33.2555 41.484 33.6795 41.632 33.9515 41.928C34.2315 42.216 34.3715 42.692 34.3715 43.356V46.632C34.3715 47.024 34.5635 47.256 34.9475 47.328L34.9595 47.676ZM41.9166 48.168C41.0766 48.168 40.3446 47.988 39.7206 47.628C39.0966 47.268 38.6166 46.768 38.2806 46.128C37.9446 45.488 37.7766 44.756 37.7766 43.932C37.7766 42.972 37.9406 42.16 38.2686 41.496C38.6046 40.832 39.0686 40.332 39.6606 39.996C40.2526 39.66 40.9366 39.492 41.7126 39.492C42.2166 39.492 42.7006 39.58 43.1646 39.756C43.2846 39.7 43.4566 39.644 43.6806 39.588C43.9126 39.532 44.0926 39.5 44.2206 39.492C44.4526 40.084 44.5686 40.988 44.5686 42.204H43.4046C43.3246 41.692 43.1246 41.296 42.8046 41.016C42.4926 40.736 42.1166 40.596 41.6766 40.596C41.1486 40.596 40.7326 40.824 40.4286 41.28C40.1326 41.728 39.9846 42.508 39.9846 43.62C39.9846 44.852 40.1326 45.724 40.4286 46.236C40.7246 46.748 41.1766 47.004 41.7846 47.004C42.0086 47.004 42.1966 46.98 42.3486 46.932C42.5006 46.884 42.6286 46.804 42.7326 46.692V45.324C42.7326 45.116 42.6406 44.968 42.4566 44.88C42.2806 44.784 42.0006 44.736 41.6166 44.736C41.6166 44.592 41.6446 44.424 41.7006 44.232C41.7566 44.04 41.8246 43.9 41.9046 43.812H44.4966C44.8086 43.812 45.0246 43.904 45.1446 44.088C45.2646 44.272 45.3246 44.448 45.3246 44.616C45.3246 44.696 45.3046 44.768 45.2646 44.832C44.9766 44.832 44.7526 44.864 44.5926 44.928V46.308C44.5926 46.564 44.6366 46.744 44.7246 46.848C44.7806 46.904 44.8086 46.976 44.8086 47.064C44.8086 47.208 44.6766 47.368 44.4126 47.544C44.1486 47.72 43.7926 47.868 43.3446 47.988C42.9046 48.108 42.4286 48.168 41.9166 48.168ZM48.6613 48.156C47.7813 48.156 47.0773 47.88 46.5493 47.328C46.0213 46.768 45.7573 45.972 45.7573 44.94C45.7573 44.204 45.8813 43.576 46.1293 43.056C46.3853 42.536 46.7413 42.144 47.1973 41.88C47.6533 41.616 48.1813 41.484 48.7813 41.484C49.3573 41.484 49.8613 41.612 50.2933 41.868C50.7333 42.116 51.0733 42.484 51.3133 42.972C51.5613 43.46 51.6853 44.052 51.6853 44.748C51.6853 45.476 51.5573 46.096 51.3013 46.608C51.0533 47.12 50.7013 47.508 50.2453 47.772C49.7893 48.028 49.2613 48.156 48.6613 48.156ZM48.7573 47.292C49.0373 47.292 49.2453 47.132 49.3813 46.812C49.5173 46.492 49.5853 45.9 49.5853 45.036C49.5853 44.308 49.5493 43.748 49.4773 43.356C49.4053 42.964 49.3053 42.696 49.1773 42.552C49.0493 42.408 48.8853 42.336 48.6853 42.336C48.4053 42.336 48.1933 42.496 48.0493 42.816C47.9133 43.136 47.8453 43.736 47.8453 44.616C47.8453 45.336 47.8813 45.892 47.9533 46.284C48.0253 46.668 48.1253 46.932 48.2533 47.076C48.3893 47.22 48.5573 47.292 48.7573 47.292Z" fill="#6923E5"/>
<circle cx="24.5" cy="17.5" r="16.5" stroke="#6923E5" stroke-width="2"/>
<path d="M24.5 4.5C24.5 4.5 16 5.46429 16 18C16 30.5357 25 30.5 25 30.5" stroke="#09999A" stroke-width="1.2"/>
<path d="M25 4.5C25 4.5 32 5.89413 32 17.9821C32 30.0702 25 30.5 25 30.5" stroke="#09999A" stroke-width="1.2" stroke-linecap="round"/>
<line x1="24.6" y1="3.5" x2="24.6" y2="31.5" stroke="#09999A" stroke-width="1.2"/>
<line x1="13" y1="10.9" x2="36" y2="10.9" stroke="#09999A" stroke-width="1.2"/>
<line x1="12" y1="16.9" x2="37" y2="16.9" stroke="#09999A" stroke-width="1.2"/>
<line x1="13" y1="23.9" x2="36" y2="23.9" stroke="#09999A" stroke-width="1.2"/>
<path d="M37.4 17.5C37.4 24.9214 31.6041 30.9 24.5 30.9C17.3959 30.9 11.6 24.9214 11.6 17.5C11.6 10.0786 17.3959 4.1 24.5 4.1C31.6041 4.1 37.4 10.0786 37.4 17.5Z" stroke="#09999A" stroke-width="1.2"/>
<path d="M40.5461 33.5043L34 32L38.9999 26.5001L40.5461 33.5043Z" fill="#6923E5"/>
</svg>
