<svg width="84" height="28" viewBox="0 0 84 28" fill="none" xmlns="http://www.w3.org/2000/svg">
<path d="M39.152 7.48C39.28 7.76 39.38 8.268 39.452 9.004C39.524 9.74 39.56 10.344 39.56 10.816C39.456 10.856 39.292 10.888 39.068 10.912C38.852 10.936 38.656 10.948 38.48 10.948C38.432 10.308 38.352 9.816 38.24 9.472C38.136 9.128 37.992 8.892 37.808 8.764C37.624 8.636 37.384 8.572 37.088 8.572H36.884V14.584C36.884 14.808 36.988 14.972 37.196 15.076C37.404 15.18 37.724 15.232 38.156 15.232C38.156 15.376 38.132 15.516 38.084 15.652C38.036 15.788 37.968 15.904 37.88 16H33.8C33.72 15.904 33.656 15.788 33.608 15.652C33.56 15.516 33.536 15.376 33.536 15.232C34.44 15.232 34.892 15.016 34.892 14.584V8.572H34.628C33.788 8.572 33.304 9.364 33.176 10.948C32.616 10.924 32.256 10.88 32.096 10.816C32.096 10.344 32.132 9.74 32.204 9.004C32.276 8.268 32.376 7.76 32.504 7.48C32.872 7.48 33.2 7.528 33.488 7.624H38.168C38.472 7.528 38.8 7.48 39.152 7.48ZM39.5531 14.308C39.5531 13.772 39.7291 13.348 40.0811 13.036C40.4331 12.724 40.9531 12.568 41.6411 12.568C41.8811 12.568 42.1251 12.592 42.3731 12.64C42.6291 12.688 42.8371 12.752 42.9971 12.832V11.236C42.9971 10.916 42.9171 10.688 42.7571 10.552C42.5971 10.408 42.3811 10.336 42.1091 10.336C41.8451 10.336 41.6291 10.4 41.4611 10.528C41.6131 10.576 41.7251 10.66 41.7971 10.78C41.8771 10.892 41.9171 11.02 41.9171 11.164C41.9171 11.42 41.8251 11.628 41.6411 11.788C41.4571 11.948 41.2251 12.028 40.9451 12.028C40.6411 12.028 40.3971 11.94 40.2131 11.764C40.0291 11.588 39.9371 11.36 39.9371 11.08C39.9371 10.8 40.0331 10.536 40.2251 10.288C40.4171 10.04 40.7091 9.84 41.1011 9.688C41.5011 9.536 41.9931 9.46 42.5771 9.46C43.3691 9.46 43.9691 9.624 44.3771 9.952C44.7851 10.272 44.9891 10.744 44.9891 11.368V14.548C44.9891 14.932 45.1731 15.164 45.5411 15.244V15.628C45.4371 15.772 45.2651 15.884 45.0251 15.964C44.7851 16.044 44.5411 16.084 44.2931 16.084C43.7491 16.084 43.3651 15.896 43.1411 15.52C42.9571 15.68 42.7331 15.816 42.4691 15.928C42.2051 16.032 41.9051 16.084 41.5691 16.084C40.9691 16.084 40.4811 15.92 40.1051 15.592C39.7371 15.256 39.5531 14.828 39.5531 14.308ZM42.9971 13.756C42.9091 13.7 42.8011 13.652 42.6731 13.612C42.5531 13.572 42.4371 13.552 42.3251 13.552C42.1011 13.552 41.9171 13.624 41.7731 13.768C41.6291 13.904 41.5571 14.104 41.5571 14.368C41.5571 14.584 41.6291 14.764 41.7731 14.908C41.9171 15.044 42.1091 15.112 42.3491 15.112C42.4691 15.112 42.5851 15.096 42.6971 15.064C42.8171 15.024 42.9171 14.976 42.9971 14.92V13.756ZM46.7424 8.32C46.7424 8.12 46.6824 7.972 46.5624 7.876C46.4504 7.772 46.2384 7.72 45.9264 7.72V7.24C46.2144 7.08 46.5784 6.944 47.0184 6.832C47.4584 6.72 47.8144 6.664 48.0864 6.664C48.2784 6.664 48.4144 6.704 48.4944 6.784C48.5744 6.864 48.6144 7.004 48.6144 7.204V14.692C48.6144 14.94 48.6624 15.112 48.7584 15.208C48.8624 15.304 49.0344 15.352 49.2744 15.352C49.2744 15.576 49.1784 15.792 48.9864 16H46.3584C46.1744 15.8 46.0824 15.584 46.0824 15.352C46.3144 15.352 46.4824 15.304 46.5864 15.208C46.6904 15.104 46.7424 14.932 46.7424 14.692V8.32ZM56.5624 15.592C56.5384 15.76 56.4264 15.892 56.2264 15.988C56.0344 16.076 55.7864 16.12 55.4824 16.12C55.0744 16.12 54.7344 16.032 54.4624 15.856C54.1984 15.68 53.9904 15.468 53.8384 15.22C53.6864 14.972 53.5224 14.648 53.3464 14.248C53.1704 13.856 53.0144 13.556 52.8784 13.348C52.7504 13.14 52.5824 12.996 52.3744 12.916V14.752C52.3744 14.984 52.4224 15.152 52.5184 15.256C52.6224 15.352 52.7984 15.4 53.0464 15.4C53.0464 15.648 52.9504 15.86 52.7584 16.036H50.1184C49.9264 15.868 49.8304 15.656 49.8304 15.4C50.0704 15.4 50.2384 15.352 50.3344 15.256C50.4384 15.152 50.4904 14.984 50.4904 14.752V8.248C50.4904 8.048 50.4344 7.9 50.3224 7.804C50.2104 7.7 49.9984 7.648 49.6864 7.648V7.168C49.9744 7.016 50.3384 6.88 50.7784 6.76C51.2264 6.64 51.5784 6.58 51.8344 6.58C52.0264 6.58 52.1624 6.624 52.2424 6.712C52.3304 6.8 52.3744 6.944 52.3744 7.144V12.484L53.6944 11.116C53.8464 10.964 53.9224 10.844 53.9224 10.756C53.9224 10.644 53.8344 10.54 53.6584 10.444C53.4904 10.348 53.3264 10.3 53.1664 10.3C53.1664 10.164 53.1904 10.032 53.2384 9.904C53.2864 9.776 53.3544 9.664 53.4424 9.568H56.1424C56.2944 9.72 56.3704 9.964 56.3704 10.3C56.1784 10.3 56.0264 10.328 55.9144 10.384C55.8104 10.44 55.7024 10.52 55.5904 10.624L53.7664 12.424C54.0624 12.472 54.3104 12.572 54.5104 12.724C54.7184 12.868 54.9064 13.092 55.0744 13.396C55.2744 13.756 55.3784 13.944 55.3864 13.96C55.6504 14.448 55.8464 14.776 55.9744 14.944C56.1104 15.104 56.3024 15.224 56.5504 15.304L56.5624 15.592ZM57.4316 10.9C57.3436 10.868 57.2636 10.8 57.1916 10.696C57.1196 10.584 57.0836 10.468 57.0836 10.348C57.4036 10.148 57.6596 9.892 57.8516 9.58C58.0516 9.268 58.1516 8.956 58.1516 8.644C58.1516 8.58 58.1476 8.528 58.1396 8.488C58.1156 8.496 58.0596 8.5 57.9716 8.5C57.6676 8.5 57.4276 8.396 57.2516 8.188C57.0836 7.98 56.9996 7.728 56.9996 7.432C56.9996 7.112 57.0956 6.852 57.2876 6.652C57.4796 6.444 57.7276 6.34 58.0316 6.34C58.3996 6.34 58.6956 6.48 58.9196 6.76C59.1436 7.032 59.2556 7.44 59.2556 7.984C59.2556 8.464 59.1676 8.908 58.9916 9.316C58.8236 9.724 58.5996 10.068 58.3196 10.348C58.0396 10.62 57.7436 10.804 57.4316 10.9ZM66.9595 15.676C66.8395 15.796 66.6235 15.892 66.3115 15.964C66.0075 16.036 65.7155 16.072 65.4355 16.072C65.0915 16.072 64.8355 16.008 64.6675 15.88C64.5075 15.752 64.4275 15.548 64.4275 15.268V11.524C64.4275 11.212 64.3595 10.988 64.2235 10.852C64.0875 10.716 63.9075 10.648 63.6835 10.648C63.3555 10.648 63.0795 10.78 62.8555 11.044V14.704C62.8555 14.936 62.9035 15.104 62.9995 15.208C63.1035 15.312 63.2755 15.364 63.5155 15.364C63.5155 15.604 63.4235 15.816 63.2395 16H60.5155C60.3235 15.808 60.2275 15.596 60.2275 15.364C60.4675 15.364 60.6395 15.312 60.7435 15.208C60.8475 15.104 60.8995 14.936 60.8995 14.704V11.2C60.8995 10.984 60.8395 10.832 60.7195 10.744C60.5995 10.648 60.3915 10.6 60.0955 10.6V10.06C60.3515 9.916 60.7115 9.784 61.1755 9.664C61.6475 9.544 62.0035 9.484 62.2435 9.484C62.4275 9.484 62.5675 9.544 62.6635 9.664C62.7675 9.776 62.8275 9.992 62.8435 10.312C63.0515 10.056 63.3115 9.856 63.6235 9.712C63.9355 9.56 64.2875 9.484 64.6795 9.484C65.2555 9.484 65.6795 9.632 65.9515 9.928C66.2315 10.216 66.3715 10.692 66.3715 11.356V14.632C66.3715 15.024 66.5635 15.256 66.9475 15.328L66.9595 15.676ZM73.9166 16.168C73.0766 16.168 72.3446 15.988 71.7206 15.628C71.0966 15.268 70.6166 14.768 70.2806 14.128C69.9446 13.488 69.7766 12.756 69.7766 11.932C69.7766 10.972 69.9406 10.16 70.2686 9.496C70.6046 8.832 71.0686 8.332 71.6606 7.996C72.2526 7.66 72.9366 7.492 73.7126 7.492C74.2166 7.492 74.7006 7.58 75.1646 7.756C75.2846 7.7 75.4566 7.644 75.6806 7.588C75.9126 7.532 76.0926 7.5 76.2206 7.492C76.4526 8.084 76.5686 8.988 76.5686 10.204H75.4046C75.3246 9.692 75.1246 9.296 74.8046 9.016C74.4926 8.736 74.1166 8.596 73.6766 8.596C73.1486 8.596 72.7326 8.824 72.4286 9.28C72.1326 9.728 71.9846 10.508 71.9846 11.62C71.9846 12.852 72.1326 13.724 72.4286 14.236C72.7246 14.748 73.1766 15.004 73.7846 15.004C74.0086 15.004 74.1966 14.98 74.3486 14.932C74.5006 14.884 74.6286 14.804 74.7326 14.692V13.324C74.7326 13.116 74.6406 12.968 74.4566 12.88C74.2806 12.784 74.0006 12.736 73.6166 12.736C73.6166 12.592 73.6446 12.424 73.7006 12.232C73.7566 12.04 73.8246 11.9 73.9046 11.812H76.4966C76.8086 11.812 77.0246 11.904 77.1446 12.088C77.2646 12.272 77.3246 12.448 77.3246 12.616C77.3246 12.696 77.3046 12.768 77.2646 12.832C76.9766 12.832 76.7526 12.864 76.5926 12.928V14.308C76.5926 14.564 76.6366 14.744 76.7246 14.848C76.7806 14.904 76.8086 14.976 76.8086 15.064C76.8086 15.208 76.6766 15.368 76.4126 15.544C76.1486 15.72 75.7926 15.868 75.3446 15.988C74.9046 16.108 74.4286 16.168 73.9166 16.168ZM80.6613 16.156C79.7813 16.156 79.0773 15.88 78.5493 15.328C78.0213 14.768 77.7573 13.972 77.7573 12.94C77.7573 12.204 77.8813 11.576 78.1293 11.056C78.3853 10.536 78.7413 10.144 79.1973 9.88C79.6533 9.616 80.1813 9.484 80.7813 9.484C81.3573 9.484 81.8613 9.612 82.2933 9.868C82.7333 10.116 83.0733 10.484 83.3133 10.972C83.5613 11.46 83.6853 12.052 83.6853 12.748C83.6853 13.476 83.5573 14.096 83.3013 14.608C83.0533 15.12 82.7013 15.508 82.2453 15.772C81.7893 16.028 81.2613 16.156 80.6613 16.156ZM80.7573 15.292C81.0373 15.292 81.2453 15.132 81.3813 14.812C81.5173 14.492 81.5853 13.9 81.5853 13.036C81.5853 12.308 81.5493 11.748 81.4773 11.356C81.4053 10.964 81.3053 10.696 81.1773 10.552C81.0493 10.408 80.8853 10.336 80.6853 10.336C80.4053 10.336 80.1933 10.496 80.0493 10.816C79.9133 11.136 79.8453 11.736 79.8453 12.616C79.8453 13.336 79.8813 13.892 79.9533 14.284C80.0253 14.668 80.1253 14.932 80.2533 15.076C80.3893 15.22 80.5573 15.292 80.7573 15.292Z" fill="#6923E5"/>
<circle cx="13.1371" cy="13.1371" r="12.3871" stroke="#6923E5" stroke-width="1.5"/>
<path d="M13.1364 3.37891C13.1364 3.37891 6.75549 4.10279 6.75549 13.5133C6.75549 22.9237 13.5117 22.8969 13.5117 22.8969" stroke="#09999A"/>
<path d="M13.5117 3.37891C13.5117 3.37891 18.7666 4.42547 18.7666 13.4998C18.7666 22.5742 13.5117 22.8969 13.5117 22.8969" stroke="#09999A" stroke-linecap="round"/>
<line x1="13.2617" y1="2.62793" x2="13.2617" y2="23.6473" stroke="#09999A"/>
<line x1="4.50391" y1="8.13379" x2="21.7698" y2="8.13379" stroke="#09999A"/>
<line x1="3.75391" y1="12.6377" x2="22.5212" y2="12.6377" stroke="#09999A"/>
<line x1="4.50391" y1="17.8926" x2="21.7698" y2="17.8926" stroke="#09999A"/>
<path d="M22.7706 13.1376C22.7706 18.6831 18.4402 23.1473 13.1363 23.1473C7.83238 23.1473 3.50195 18.6831 3.50195 13.1376C3.50195 7.59213 7.83238 3.12793 13.1363 3.12793C18.4402 3.12793 22.7706 7.59213 22.7706 13.1376Z" stroke="#09999A"/>
<path d="M25.1828 25.1513L20.2687 24.022L24.0221 19.8932L25.1828 25.1513Z" fill="#6923E5"/>
</svg>
